<svg width="180" height="140" viewBox="0 0 180 140" fill="none" xmlns="http://www.w3.org/2000/svg">
<path d="M55.0129 0.00976562C59.2225 -0.196482 67.4486 2.90036 71.6379 4.16406L96.3479 11.3545L129.465 20.9121C132.771 21.8992 136.172 22.6356 139.468 23.6602C142.011 24.4504 143.084 25.629 144.708 27.6016C146.197 35.4058 141.177 40.5962 137.473 46.9121C133.041 54.5375 128.514 62.1073 123.895 69.6201C122.089 72.5788 118.993 77.1254 118.006 80.2168C119.547 80.6674 121.508 81.5895 123.03 82.2305C139.551 89.19 156.052 96.1991 172.629 103.024C174.625 103.846 177.467 105.435 179.046 106.845C179.754 108.99 179.836 109.575 179.034 111.734C177.954 112.585 175.254 114.126 173.934 114.479C161.802 117.723 149.638 122.076 137.505 125.179C133.998 126.348 131.521 126.745 128.335 127.729L94.4407 138.021C88.2019 139.873 85.1614 139.094 79.0627 137.449C73.9313 136.065 72.7833 135.181 68.2581 132.405L59.9661 127.429C55.6439 124.851 51.2383 122.505 46.9465 119.872C41.5012 116.531 35.9674 113.371 30.4846 110.073L16.8362 101.992C12.0053 99.1375 6.8054 96.4377 2.20337 93.2061C1.30676 92.5764 0.51463 91.6239 0.212158 90.5664C-0.227646 89.0283 0.0573535 85.3891 0.687744 83.9482C2.40735 80.0174 4.92529 76.4216 7.11841 72.834L16.7776 56.8604C26.5381 41.0524 35.8735 24.8138 45.5842 8.96094C47.9766 5.05552 50.282 1.24068 55.0129 0.00976562ZM171.589 111.331C170.757 110.321 168.867 110.617 168.052 111.614C163.446 111.886 157.475 114.035 152.748 115.255C137.333 119.233 122.03 123.764 106.542 127.52C100.12 129.077 92.9065 131.954 86.2942 132.51C85.6331 132.985 84.7596 133.503 84.4065 134.207L84.4856 134.61C87.7905 136.736 102.021 131.146 106.206 130.263C108.979 129.678 111.892 128.391 114.573 127.615L147.499 117.927C149.414 117.353 167.856 112.219 168.327 111.834C169.316 111.522 171.152 111.666 171.589 111.331ZM55.3313 4.09961C53.645 4.93887 52.5928 5.60117 51.4592 7.20703C48.0862 11.9852 45.3327 17.3445 42.304 22.2588L17.1487 63.9033L7.90942 79.1279C6.6022 81.3065 4.73927 83.7154 4.08228 86.2744L67.0247 59.0332C68.1139 58.5618 69.3794 59.0631 69.8508 60.1523C70.3222 61.2415 69.8217 62.507 68.7327 62.9785L5.08911 90.5225C20.2653 99.6845 35.5813 108.521 50.8284 117.541L67.1301 127.135C74.0348 131.204 78.7692 136.721 84.6526 127.641C92.1514 114.893 99.7771 102.22 107.529 89.625L122.071 65.0547C126.83 57.3628 131.477 49.602 136.011 41.7754C137.648 38.9352 144.281 29.7875 140.042 28.124C134.144 25.8099 125.612 23.8921 119.492 22.0928L82.47 11.377C80.7955 10.8875 78.9146 10.0435 77.2874 9.64355C72.2254 8.39944 67.2962 6.82124 62.3 5.37695C60.5255 4.86407 57.0581 4.03949 55.3313 4.09961ZM112.022 89.5C110.571 92.4846 108.632 95.2566 107.165 98.2188C114.975 102.079 122.829 105.852 130.724 109.536C134.893 111.518 139.098 113.831 143.36 115.601C147.111 114.882 151.275 113.561 155.005 112.615C157.974 111.862 162.734 111.002 165.494 109.752C167.726 109.201 171.629 108.614 173.359 108.095C170.299 105.945 168.217 105.524 164.929 104.031C159.294 101.491 153.441 99.1193 147.685 96.8896C144.975 95.84 140.369 93.3273 137.757 92.7373C135.322 92.1871 127.534 94.5109 124.66 95.0547C122.077 94.1453 119.66 92.8158 117.165 91.6543C115.686 90.9654 113.326 90.2344 112.022 89.5ZM174.982 109.817C174.335 109.329 172.858 109.539 171.998 109.605L171.846 109.979C172.383 110.43 174.111 110.268 174.903 110.24L174.982 109.817Z" fill="url(#paint0_linear_43_16)"/>
<defs>
<linearGradient id="paint0_linear_43_16" x1="2.30249" y1="88.9814" x2="142.802" y2="29.4814" gradientUnits="userSpaceOnUse">
<stop stop-color="#0069CA"/>
<stop offset="0.4" stop-color="#0069CA"/>
<stop offset="0.6" stop-color="white"/>
<stop offset="1" stop-color="white"/>
</linearGradient>
</defs>
</svg>
